# xmcd
#
# Track frame offsets:
#	150
#	17350
#	35380
#	40685
#	66985
#	89937
#	97985
#	123317
#	139795
#	153455
#	157912
#
# Disc length: 2342 seconds
#
# Revision: 7
# Processed by: cddbd v1.5.2PL0 Copyright (c) Steve Scherf et al.
# Submitted via: audiograbber 1.83.01
#
DISCID=8609240b
DTITLE=Andreas Vollenweider - Dancing with the Lion
DYEAR=1989
DGENRE=Entspannung
TTITLE0=Unto the burning Circle
TTITLE1=Dancing with the Lion
TTITLE2=Hippolyte
TTITLE3=Dance of the Masks
TTITLE4=Pearls and Tears
TTITLE5=Garden of my Childhood
TTITLE6=Still Life
TTITLE7=And the long Shadows
TTITLE8=See, my Love...
TTITLE9=Silver Dew, golden Grass
TTITLE10=Ascent from the Circle
EXTD=
EXTT0=
EXTT1=
EXTT2=
EXTT3=
EXTT4=
EXTT5=
EXTT6=
EXTT7=
EXTT8=
EXTT9=
EXTT10=
PLAYORDER=
